<svg width="22" height="22" viewBox="0 0 22 22" fill="none" xmlns="http://www.w3.org/2000/svg">
<circle cx="11" cy="11" r="10" stroke="white" stroke-width="2"/>
<path d="M9.98092 16V9.006H12.0089V16H9.98092ZM10.9949 8.031C10.6223 8.031 10.3189 7.92267 10.0849 7.706C9.85092 7.48933 9.73392 7.22067 9.73392 6.9C9.73392 6.57933 9.85092 6.31067 10.0849 6.094C10.3189 5.87733 10.6223 5.769 10.9949 5.769C11.3676 5.769 11.6709 5.873 11.9049 6.081C12.1389 6.28033 12.2559 6.54033 12.2559 6.861C12.2559 7.199 12.1389 7.48067 11.9049 7.706C11.6796 7.92267 11.3763 8.031 10.9949 8.031Z" fill="white"/>
</svg>
